<?xml version="1.0" encoding="utf-8"?>
<!-- Generator: Adobe Illustrator 17.1.0, SVG Export Plug-In . SVG Version: 6.00 Build 0)  -->
<!DOCTYPE svg PUBLIC "-//W3C//DTD SVG 1.1//EN" "http://www.w3.org/Graphics/SVG/1.1/DTD/svg11.dtd">
<svg version="1.1" xmlns="http://www.w3.org/2000/svg" xmlns:xlink="http://www.w3.org/1999/xlink" x="0px" y="0px"
	 viewBox="0 0 800 600" enable-background="new 0 0 800 600" xml:space="preserve">
<g id="Domain_x5F_Layer">
	<g>
		<g id="Layer_x5F_Package">
			<rect x="151.5" y="109.5" fill="#FFFFFF" stroke="#000000" stroke-width="3" stroke-miterlimit="10" width="539" height="139"/>
			<line fill="none" stroke="#000000" stroke-width="3" stroke-miterlimit="10" x1="151.5" y1="110" x2="151.5" y2="72"/>
			<line fill="none" stroke="#000000" stroke-width="3" stroke-miterlimit="10" x1="150" y1="72.5" x2="355" y2="72.5"/>
			<line fill="none" stroke="#000000" stroke-width="3" stroke-miterlimit="10" x1="353.5" y1="73" x2="353.5" y2="108"/>
			<rect x="152.5" y="83.9" fill="none" width="199.5" height="15.5"/>
			<text transform="matrix(1.1268 0 0 1 217.3213 96.7832)" font-family="'ArialMT'" font-size="18">Domain</text>
		</g>
		<g id="Sub_x5F_Package">
			<g id="Package_6_">
				<rect x="177.5" y="152.5" fill="#FFFFFF" stroke="#000000" stroke-width="3" stroke-miterlimit="10" width="141" height="56"/>
				<line fill="none" stroke="#000000" stroke-width="3" stroke-miterlimit="10" x1="177.5" y1="153" x2="177.5" y2="141"/>
				<line fill="none" stroke="#000000" stroke-width="3" stroke-miterlimit="10" x1="177" y1="141.5" x2="232" y2="141.5"/>
				<line fill="none" stroke="#000000" stroke-width="3" stroke-miterlimit="10" x1="231.5" y1="142" x2="231.5" y2="152"/>
			</g>
			<rect x="178.5" y="174.3" fill="none" width="140.5" height="18.2"/>
			<text transform="matrix(1 0 0 1 229.7504 187.2291)" font-family="'ArialMT'" font-size="18">POS</text>
		</g>
		<g id="Sub_x5F_Package_1_">
			<g id="Package_2_">
				<rect x="349.5" y="152.5" fill="#FFFFFF" stroke="#000000" stroke-width="3" stroke-miterlimit="10" width="141" height="56"/>
				<line fill="none" stroke="#000000" stroke-width="3" stroke-miterlimit="10" x1="349.5" y1="153" x2="349.5" y2="141"/>
				<line fill="none" stroke="#000000" stroke-width="3" stroke-miterlimit="10" x1="349" y1="141.5" x2="404" y2="141.5"/>
				<line fill="none" stroke="#000000" stroke-width="3" stroke-miterlimit="10" x1="403.5" y1="142" x2="403.5" y2="152"/>
			</g>
			<rect x="350.5" y="174.3" fill="none" width="140.5" height="18.2"/>
			<text transform="matrix(1 0 0 1 383.7368 187.2291)" font-family="'ArialMT'" font-size="18">Inventory</text>
		</g>
		<g id="Sub_x5F_Package_2_">
			<g id="Package_8_">
				<rect x="513.5" y="152.5" fill="#FFFFFF" stroke="#000000" stroke-width="3" stroke-miterlimit="10" width="141" height="56"/>
				<line fill="none" stroke="#000000" stroke-width="3" stroke-miterlimit="10" x1="513.5" y1="153" x2="513.5" y2="141"/>
				<line fill="none" stroke="#000000" stroke-width="3" stroke-miterlimit="10" x1="513" y1="141.5" x2="568" y2="141.5"/>
				<line fill="none" stroke="#000000" stroke-width="3" stroke-miterlimit="10" x1="567.5" y1="142" x2="567.5" y2="152"/>
			</g>
			<rect x="514.5" y="174.3" fill="none" width="140.5" height="18.2"/>
			<text transform="matrix(1 0 0 1 569.7534 187.2291)" font-family="'ArialMT'" font-size="18">Tax</text>
		</g>
	</g>
</g>
<g id="Techincal_x5F_Services_x5F_Layer">
	<g>
		<g id="Layer_x5F_Package_1_">
			<rect x="151.5" y="320.5" fill="#FFFFFF" stroke="#000000" stroke-width="3" stroke-miterlimit="10" width="539" height="139"/>
			<line fill="none" stroke="#000000" stroke-width="3" stroke-miterlimit="10" x1="151.5" y1="321" x2="151.5" y2="283"/>
			<line fill="none" stroke="#000000" stroke-width="3" stroke-miterlimit="10" x1="150" y1="283.5" x2="355" y2="283.5"/>
			<line fill="none" stroke="#000000" stroke-width="3" stroke-miterlimit="10" x1="353.5" y1="284" x2="353.5" y2="319"/>
			<rect x="152.5" y="294.9" fill="none" width="199.5" height="15.5"/>
			<text transform="matrix(1.1268 0 0 1 167.1592 307.7832)" font-family="'ArialMT'" font-size="18">Technical Services</text>
		</g>
		<g id="Sub_x5F_Package_6_">
			<g id="Package_5_">
				<rect x="177.5" y="363.5" fill="#FFFFFF" stroke="#000000" stroke-width="3" stroke-miterlimit="10" width="141" height="56"/>
				<line fill="none" stroke="#000000" stroke-width="3" stroke-miterlimit="10" x1="177.5" y1="364" x2="177.5" y2="352"/>
				<line fill="none" stroke="#000000" stroke-width="3" stroke-miterlimit="10" x1="177" y1="352.5" x2="232" y2="352.5"/>
				<line fill="none" stroke="#000000" stroke-width="3" stroke-miterlimit="10" x1="231.5" y1="353" x2="231.5" y2="363"/>
			</g>
			<rect x="178.5" y="385.3" fill="none" width="140.5" height="18.2"/>
			<text transform="matrix(1 0 0 1 201.7348 398.2291)" font-family="'ArialMT'" font-size="18">Persistence</text>
		</g>
		<g id="Sub_x5F_Package_5_">
			<g id="Package_4_">
				<rect x="349.5" y="363.5" fill="#FFFFFF" stroke="#000000" stroke-width="3" stroke-miterlimit="10" width="141" height="56"/>
				<line fill="none" stroke="#000000" stroke-width="3" stroke-miterlimit="10" x1="349.5" y1="364" x2="349.5" y2="352"/>
				<line fill="none" stroke="#000000" stroke-width="3" stroke-miterlimit="10" x1="349" y1="352.5" x2="404" y2="352.5"/>
				<line fill="none" stroke="#000000" stroke-width="3" stroke-miterlimit="10" x1="403.5" y1="353" x2="403.5" y2="363"/>
			</g>
			<rect x="350.5" y="385.3" fill="none" width="140.5" height="18.2"/>
			<text transform="matrix(1 0 0 1 388.2455 398.2291)" font-family="'ArialMT'" font-size="18">Security</text>
		</g>
		<g id="Sub_x5F_Package_4_">
			<g id="Package_3_">
				<rect x="513.5" y="363.5" fill="#FFFFFF" stroke="#000000" stroke-width="3" stroke-miterlimit="10" width="141" height="56"/>
				<line fill="none" stroke="#000000" stroke-width="3" stroke-miterlimit="10" x1="513.5" y1="364" x2="513.5" y2="352"/>
				<line fill="none" stroke="#000000" stroke-width="3" stroke-miterlimit="10" x1="513" y1="352.5" x2="568" y2="352.5"/>
				<line fill="none" stroke="#000000" stroke-width="3" stroke-miterlimit="10" x1="567.5" y1="353" x2="567.5" y2="363"/>
			</g>
			<rect x="514.5" y="385.3" fill="none" width="140.5" height="18.2"/>
			<text transform="matrix(1 0 0 1 552.725 398.2291)" font-family="'ArialMT'" font-size="18">Logging</text>
		</g>
	</g>
</g>
<g id="Axes">
	<g>
		<line fill="#666666" x1="155" y1="497" x2="688" y2="497"/>
		<g>
			<line fill="none" stroke="#666666" stroke-width="3" stroke-miterlimit="10" x1="167" y1="496.5" x2="676" y2="496.5"/>
			<g>
				<polygon fill="#666666" points="172.6,503.9 169.5,496.5 172.6,489.1 155,496.5 				"/>
			</g>
			<g>
				<polygon fill="#666666" points="670.4,503.9 673.5,496.5 670.4,489.1 688,496.5 				"/>
			</g>
		</g>
	</g>
	<rect x="155.9" y="506.6" fill="none" width="533.1" height="20.9"/>
	<text transform="matrix(1 0 0 1 350.9141 518.1045)" fill="#666666" stroke="#666666" font-family="'ArialMT'" font-size="16">Horizontal Partitions</text>
	<g>
		<line fill="#666666" x1="97" y1="73" x2="97" y2="459"/>
		<g>
			<line fill="none" stroke="#666666" stroke-width="3" stroke-miterlimit="10" x1="97.5" y1="85" x2="97.5" y2="447"/>
			<g>
				<polygon fill="#666666" points="90.1,90.6 97.5,87.5 104.9,90.6 97.5,73 				"/>
			</g>
			<g>
				<polygon fill="#666666" points="90.1,441.4 97.5,444.5 104.9,441.4 97.5,459 				"/>
			</g>
		</g>
	</g>
	<rect x="74.8" y="73.5" fill="none" width="18.2" height="385.8"/>
	
		<text transform="matrix(4.489659e-011 -1 1 4.489659e-011 86.2321 328.6924)" fill="#666666" stroke="#666666" font-family="'ArialMT'" font-size="16">Vertical Partitions</text>
</g>
</svg>
