<?xml version="1.0" encoding="utf-8"?>
<!-- Generator: Adobe Illustrator 17.1.0, SVG Export Plug-In . SVG Version: 6.00 Build 0)  -->
<!DOCTYPE svg PUBLIC "-//W3C//DTD SVG 1.1//EN" "http://www.w3.org/Graphics/SVG/1.1/DTD/svg11.dtd">
<svg version="1.1" xmlns="http://www.w3.org/2000/svg" xmlns:xlink="http://www.w3.org/1999/xlink" x="0px" y="0px"
	 viewBox="0 0 848 848" enable-background="new 0 0 848 848" xml:space="preserve">
<g id="Foundation">
	<g id="Package_5_">
		<rect x="201.5" y="683" fill="#FFFFFF" stroke="#000000" stroke-width="3" stroke-miterlimit="10" width="602" height="88"/>
		<line fill="none" stroke="#000000" stroke-width="3" stroke-miterlimit="10" x1="201.5" y1="683.5" x2="201.5" y2="664.5"/>
		<line fill="none" stroke="#000000" stroke-width="3" stroke-miterlimit="10" x1="200" y1="665" x2="434" y2="665"/>
		<line fill="none" stroke="#000000" stroke-width="3" stroke-miterlimit="10" x1="432.5" y1="665.5" x2="432.5" y2="682.5"/>
	</g>
	<rect x="201" y="714.5" fill="none" width="602" height="31"/>
	<text transform="matrix(1 0 0 1 421.9375 737.4121)" font-family="'ArialMT'" font-size="32">Foundation</text>
</g>
<g id="Technical_x5F_Services">
	<g id="Package_11_">
		<rect x="201.5" y="553" fill="#FFFFFF" stroke="#000000" stroke-width="3" stroke-miterlimit="10" width="464" height="88"/>
		<line fill="none" stroke="#000000" stroke-width="3" stroke-miterlimit="10" x1="201.5" y1="553.5" x2="201.5" y2="534.5"/>
		<line fill="none" stroke="#000000" stroke-width="3" stroke-miterlimit="10" x1="200" y1="535" x2="381" y2="535"/>
		<line fill="none" stroke="#000000" stroke-width="3" stroke-miterlimit="10" x1="379.5" y1="535.5" x2="379.5" y2="552.5"/>
	</g>
	<rect x="201" y="581.5" fill="none" width="464" height="44"/>
	<text transform="matrix(1 0 0 1 298.7266 604.4121)" font-family="'ArialMT'" font-size="32">Technical Services</text>
</g>
<g id="Business_x5F_Infrastructure">
	<g id="Package_3_">
		<rect x="200.5" y="422" fill="#FFFFFF" stroke="#000000" stroke-width="3" stroke-miterlimit="10" width="354" height="88"/>
		<line fill="none" stroke="#000000" stroke-width="3" stroke-miterlimit="10" x1="200.5" y1="422.5" x2="200.5" y2="403.5"/>
		<line fill="none" stroke="#000000" stroke-width="3" stroke-miterlimit="10" x1="200" y1="404" x2="337" y2="404"/>
		<line fill="none" stroke="#000000" stroke-width="3" stroke-miterlimit="10" x1="337.5" y1="404.5" x2="337.5" y2="421.5"/>
	</g>
	<rect x="201" y="451.5" fill="none" width="352" height="38"/>
	<text transform="matrix(1 0 0 1 213.375 474.4121)" font-family="'ArialMT'" font-size="32">Business Infrastructure</text>
</g>
<g id="Domain">
	<g id="Package_7_">
		<rect x="200.5" y="292" fill="#FFFFFF" stroke="#000000" stroke-width="3" stroke-miterlimit="10" width="276" height="88"/>
		<line fill="none" stroke="#000000" stroke-width="3" stroke-miterlimit="10" x1="200.5" y1="292.5" x2="200.5" y2="273.5"/>
		<line fill="none" stroke="#000000" stroke-width="3" stroke-miterlimit="10" x1="200" y1="274" x2="308" y2="274"/>
		<line fill="none" stroke="#000000" stroke-width="3" stroke-miterlimit="10" x1="307.5" y1="274.5" x2="307.5" y2="291.5"/>
	</g>
	<rect x="200.5" y="324" fill="none" width="290" height="29"/>
	<text transform="matrix(1 0 0 1 290.3672 346.9116)" font-family="'ArialMT'" font-size="32">Domain</text>
</g>
<g id="Application">
	<g id="Package_1_">
		<rect x="200.5" y="161" fill="#FFFFFF" stroke="#000000" stroke-width="3" stroke-miterlimit="10" width="221" height="88"/>
		<line fill="none" stroke="#000000" stroke-width="3" stroke-miterlimit="10" x1="200.5" y1="161.5" x2="200.5" y2="142.5"/>
		<line fill="none" stroke="#000000" stroke-width="3" stroke-miterlimit="10" x1="200" y1="143" x2="286" y2="143"/>
		<line fill="none" stroke="#000000" stroke-width="3" stroke-miterlimit="10" x1="285.5" y1="143.5" x2="285.5" y2="160.5"/>
	</g>
</g>
<g id="UI">
	<g id="Package_2_">
		<rect x="200.5" y="31" fill="#FFFFFF" stroke="#000000" stroke-width="3" stroke-miterlimit="10" width="221" height="88"/>
		<line fill="none" stroke="#000000" stroke-width="3" stroke-miterlimit="10" x1="200.5" y1="31.5" x2="200.5" y2="12.5"/>
		<line fill="none" stroke="#000000" stroke-width="3" stroke-miterlimit="10" x1="200" y1="13" x2="286" y2="13"/>
		<line fill="none" stroke="#000000" stroke-width="3" stroke-miterlimit="10" x1="285.5" y1="13.5" x2="285.5" y2="30.5"/>
	</g>
	<rect x="199" y="61.5" fill="none" width="221" height="25.5"/>
	<text transform="matrix(1 0 0 1 293.5 84.4116)" font-family="'ArialMT'" font-size="32">UI</text>
	<rect x="202" y="191.5" fill="none" width="221" height="43"/>
	<text transform="matrix(1 0 0 1 234.2266 214.4116)" font-family="'ArialMT'" font-size="32">Application</text>
</g>
<g id="Axes">
	<g>
		<line fill="#666666" x1="201" y1="807.5" x2="793" y2="807.5"/>
		<g>
			<line fill="none" stroke="#666666" stroke-width="3" stroke-miterlimit="10" x1="201" y1="807" x2="781" y2="807"/>
			<g>
				<polygon fill="#666666" points="775.4,814.4 778.5,807 775.4,799.6 793,807 				"/>
			</g>
		</g>
	</g>
	<rect x="201" y="812.5" fill="none" width="589" height="29"/>
	
		<text transform="matrix(1 0 0 1 359.4321 825.3877)" fill="#666666" stroke="#666666" stroke-miterlimit="10" font-family="'ArialMT'" font-size="18">width implies range of applicablilty</text>
	<g>
		<line fill="#666666" x1="133" y1="525.5" x2="133" y2="253.5"/>
		<g>
			<line fill="none" stroke="#666666" stroke-width="3" stroke-miterlimit="10" x1="132.5" y1="525.5" x2="132.5" y2="265.5"/>
			<g>
				<polygon fill="#666666" points="140.4,271.1 133,268 125.6,271.1 133,253.5 				"/>
			</g>
		</g>
	</g>
	<rect x="74.5" y="188.5" fill="none" width="117" height="64"/>
	<text transform="matrix(1 0 0 1 112.4951 201.3877)"><tspan x="0" y="0" fill="#666666" stroke="#666666" stroke-miterlimit="10" font-family="'ArialMT'" font-size="18">more</tspan><tspan x="5.5" y="21.6" fill="#666666" stroke="#666666" stroke-miterlimit="10" font-family="'ArialMT'" font-size="18">app</tspan><tspan x="-9.5" y="43.2" fill="#666666" stroke="#666666" stroke-miterlimit="10" font-family="'ArialMT'" font-size="18">specific</tspan></text>
	<g>
		<line fill="#666666" x1="59" y1="258.5" x2="59" y2="527.5"/>
		<g>
			<line fill="none" stroke="#666666" stroke-width="3" stroke-miterlimit="10" x1="59.5" y1="258.5" x2="59.5" y2="264.5"/>
			
				<line fill="none" stroke="#666666" stroke-width="3" stroke-miterlimit="10" stroke-dasharray="12,12" x1="59.5" y1="276.5" x2="59.5" y2="503.5"/>
			<line fill="none" stroke="#666666" stroke-width="3" stroke-miterlimit="10" x1="59.5" y1="509.5" x2="59.5" y2="515.5"/>
			<g>
				<polygon fill="#666666" points="52.1,509.9 59.5,513 66.9,509.9 59.5,527.5 				"/>
			</g>
		</g>
	</g>
	<rect x="35" y="294.5" fill="none" width="22" height="172"/>
	
		<text transform="matrix(4.489659e-011 -1 1 4.489659e-011 47.8877 429.543)" fill="#666666" stroke="#666666" stroke-miterlimit="10" font-family="'ArialMT'" font-size="18">dependency</text>
</g>
</svg>
