<?xml version="1.0" encoding="utf-8"?>
<!-- Generator: Adobe Illustrator 17.1.0, SVG Export Plug-In . SVG Version: 6.00 Build 0)  -->
<!DOCTYPE svg PUBLIC "-//W3C//DTD SVG 1.1//EN" "http://www.w3.org/Graphics/SVG/1.1/DTD/svg11.dtd">
<svg version="1.1" id="Layer_1" xmlns="http://www.w3.org/2000/svg" xmlns:xlink="http://www.w3.org/1999/xlink" x="0px" y="0px"
	 viewBox="0 0 480 240" enable-background="new 0 0 480 240" xml:space="preserve">
<ellipse fill="#FFFFFF" stroke="#000000" stroke-miterlimit="10" cx="84.5" cy="43.6" rx="61.7" ry="25.3"/>
<rect x="41.2" y="27.8" fill="none" width="89.2" height="31.7"/>
<text transform="matrix(1 0 0 1 46.1641 38.8178)"><tspan x="0" y="0" font-family="'Consolas'" font-size="16">Reference </tspan><tspan x="17.6" y="19.2" font-family="'Consolas'" font-size="16">Model</tspan></text>
<path fill="#FFFFFF" stroke="#000000" stroke-miterlimit="10" d="M147.5,205.5c0,6.6-5.4,12-12,12h-101c-6.6,0-12-5.4-12-12v-28
	c0-6.6,5.4-12,12-12h101c6.6,0,12,5.4,12,12V205.5z"/>
<path fill="#FFFFFF" stroke="#000000" stroke-miterlimit="10" d="M304.5,132.5c0,6.6-5.4,12-12,12h-101c-6.6,0-12-5.4-12-12v-28
	c0-6.6,5.4-12,12-12h101c6.6,0,12,5.4,12,12V132.5z"/>
<path fill="#FFFFFF" stroke="#000000" stroke-miterlimit="10" d="M464.5,132.5c0,6.6-5.4,12-12,12h-101c-6.6,0-12-5.4-12-12v-28
	c0-6.6,5.4-12,12-12h101c6.6,0,12,5.4,12,12V132.5z"/>
<g>
	<g>
		<line fill="none" stroke="#000000" stroke-miterlimit="10" x1="135.1" y1="58.1" x2="175.8" y2="90.8"/>
		<g>
			<polygon points="171.6,93.8 181.4,95.3 177.8,86 			"/>
		</g>
	</g>
</g>
<g>
	<g>
		<line fill="none" stroke="#000000" stroke-miterlimit="10" x1="145.1" y1="169.4" x2="175" y2="145.8"/>
		<g>
			<polygon points="176.9,150.7 180.6,141.4 170.7,142.8 			"/>
		</g>
	</g>
</g>
<g>
	<g>
		<line fill="none" stroke="#000000" stroke-miterlimit="10" x1="304" y1="118.5" x2="332" y2="118.5"/>
		<g>
			<polygon points="330,123.5 338.6,118.5 330,113.5 			"/>
		</g>
	</g>
</g>
<rect x="29.8" y="176.3" fill="none" width="113.3" height="36.4"/>
<text transform="matrix(1 0 0 1 32.8389 186.6687)"><tspan x="0" y="0" font-family="'Consolas'" font-size="15">Architectural </tspan><tspan x="24.7" y="18" font-family="'Consolas'" font-size="15">Pattern</tspan></text>
<rect x="188.7" y="103.9" fill="none" width="106.1" height="38.3"/>
<text transform="matrix(1 0 0 1 204.6104 114.2383)"><tspan x="0" y="0" font-family="'Consolas'" font-size="15">Reference </tspan><tspan x="-12.4" y="18" font-family="'Consolas'" font-size="15">Architecture</tspan></text>
<rect x="352.6" y="104.2" fill="none" width="100.8" height="30.6"/>
<text transform="matrix(1 0 0 1 370.0391 114.5718)"><tspan x="0" y="0" font-family="'Consolas'" font-size="15">Software </tspan><tspan x="-16.5" y="18" font-family="'Consolas'" font-size="15">Architecture</tspan></text>
</svg>
