<svg xmlns="http://www.w3.org/2000/svg" width="215.26" height="19.48" viewBox="0 0 215.26 19.48"><defs><style>.cls-1{fill:#FFF;}.cls-2{fill:#567496;}</style></defs><title>travels-in-code_wide</title><g id="Shadow"><path class="cls-1" d="M10.16,9.18H5.48v-3H18.39v3H13.7V21.86H10.16Z" transform="translate(-4.19 -2.66)"/><path class="cls-1" d="M21.9,10h2.91l.28,2.6h.08A5.55,5.55,0,0,1,30,9.66a4.85,4.85,0,0,1,2.28.48l-.71,3a6.18,6.18,0,0,0-2.11-.35c-1.48,0-3,.77-4,2.9v6.2H21.9Z" transform="translate(-4.19 -2.66)"/><path class="cls-1" d="M35,18.56c0-2.67,2.21-4,7.84-4.37-.13-1.07-.93-1.72-2.53-1.72a8.17,8.17,0,0,0-3.63,1.12l-1.26-2.32A11.33,11.33,0,0,1,41,9.66c3.35,0,5.38,1.74,5.38,5.39v6.81H43.48l-.25-1.34h-.09a7.3,7.3,0,0,1-4.22,1.63A3.61,3.61,0,0,1,35,18.56Zm7.84-.29V16.32c-3.51.18-4.45.94-4.45,1.95,0,.77.65,1.14,1.65,1.14A4.54,4.54,0,0,0,42.84,18.27Z" transform="translate(-4.19 -2.66)"/><path class="cls-1" d="M48.68,10h3.55l1.87,5.61c.39,1.2.72,2.42,1.08,3.67h.09c.36-1.25.67-2.47,1.07-3.67L58.21,10h3.37L57.22,21.86h-4Z" transform="translate(-4.19 -2.66)"/><path class="cls-1" d="M63.65,15.9a6.08,6.08,0,0,1,6.2-6.24c3.67,0,5.6,2.48,5.6,5.72A11.72,11.72,0,0,1,75.31,17h-9V14.59h6.65l-.56.67c0-1.91-.83-2.91-2.39-2.91-1.75,0-2.89,1.18-2.89,3.55s1.34,3.55,3.66,3.55a6.53,6.53,0,0,0,3.06-.82L75,20.75a9.12,9.12,0,0,1-4.72,1.4C66.54,22.15,63.65,19.85,63.65,15.9Z" transform="translate(-4.19 -2.66)"/><path class="cls-1" d="M81.67,17.2V7.81H77.92V5H85.2v12.3a1.76,1.76,0,0,0,1.94,1.95A5.08,5.08,0,0,0,89,18.9l.78,2.6a10.07,10.07,0,0,1-3.56.65C83.23,22.15,81.67,20.22,81.67,17.2Z" transform="translate(-4.19 -2.66)"/><path class="cls-1" d="M92.4,20.32l1.5-2.2a9.08,9.08,0,0,0,4.81,1.41c1.31,0,1.89-.44,1.89-1s-.58-.91-2.92-1.4c-3.24-.69-4.52-1.88-4.52-3.72,0-2.22,2.07-3.73,5.47-3.73a9.65,9.65,0,0,1,5.15,1.63l-1.58,2.12a7.62,7.62,0,0,0-3.89-1.14c-1.11,0-1.65.4-1.65,1s.73.82,2.75,1.27c3.67.83,4.69,1.87,4.69,3.81,0,2.16-2,3.85-5.87,3.85A11.12,11.12,0,0,1,92.4,20.32Z" transform="translate(-4.19 -2.66)"/><path class="cls-1" d="M126.61,12.72h-4.8V10h8.33V21.86h-3.53Zm-.74-6.79a2.35,2.35,0,0,1,4.69,0,2.35,2.35,0,0,1-4.69,0Z" transform="translate(-4.19 -2.66)"/><path class="cls-1" d="M136.06,10h2.88l.25,1.59h.1a5.74,5.74,0,0,1,4.12-1.88c2.69,0,3.87,1.84,3.87,4.84v7.36h-3.53V15c0-1.59-.46-2.29-1.75-2.29a3.34,3.34,0,0,0-2.41,1.24v8h-3.53Z" transform="translate(-4.19 -2.66)"/><path class="cls-1" d="M164.43,14.12c0-5.18,3.28-8.19,7.47-8.19a6.7,6.7,0,0,1,4.67,2l-1.95,2.19A3.83,3.83,0,0,0,171.9,9c-2.22,0-3.84,1.88-3.84,5s1.62,5.08,4,5.08a3.82,3.82,0,0,0,2.82-1.38l1.95,2.14a6.47,6.47,0,0,1-5.14,2.3C167.79,22.15,164.43,19.4,164.43,14.12Z" transform="translate(-4.19 -2.66)"/><path class="cls-1" d="M178.66,15.91a6.07,6.07,0,1,1,12.14,0,6.07,6.07,0,1,1-12.14,0Zm8.53,0c0-2.06-.83-3.4-2.46-3.4s-2.46,1.34-2.46,3.4.83,3.38,2.46,3.38S187.19,18,187.19,15.91Z" transform="translate(-4.19 -2.66)"/><path class="cls-1" d="M193.06,15.91c0-3.9,2.5-6.25,5.09-6.25a4,4,0,0,1,3,1.28h.08l-.16-1.84V5h3.53V21.86h-2.88l-.25-1.23h-.09a5,5,0,0,1-3.3,1.52C195,22.15,193.06,19.8,193.06,15.91Zm8,2.24V13.34a2.86,2.86,0,0,0-2-.79c-1.28,0-2.4,1-2.4,3.32s.87,3.38,2.31,3.38A2.49,2.49,0,0,0,201.07,18.15Z" transform="translate(-4.19 -2.66)"/><path class="cls-1" d="M207.65,15.9a6.07,6.07,0,0,1,6.19-6.24c3.67,0,5.61,2.48,5.61,5.72A10,10,0,0,1,219.3,17h-9V14.59h6.64l-.55.67c0-1.91-.84-2.91-2.4-2.91-1.75,0-2.89,1.18-2.89,3.55s1.35,3.55,3.66,3.55a6.6,6.6,0,0,0,3.07-.82L219,20.75a9.15,9.15,0,0,1-4.72,1.4C210.54,22.15,207.65,19.85,207.65,15.9Z" transform="translate(-4.19 -2.66)"/></g><g id="Text"><path class="cls-2" d="M8.88,8.11H4.19v-3H17.11v3H12.42V20.78H8.88Z" transform="translate(-4.19 -2.66)"/><path class="cls-2" d="M20.62,8.88h2.9l.28,2.6h.08a5.54,5.54,0,0,1,4.83-2.89A4.9,4.9,0,0,1,31,9.07l-.72,3a6.14,6.14,0,0,0-2.11-.35c-1.47,0-3,.76-4,2.9v6.19H20.62Z" transform="translate(-4.19 -2.66)"/><path class="cls-2" d="M33.72,17.48c0-2.67,2.21-4,7.83-4.37-.12-1.06-.93-1.71-2.52-1.71a8.27,8.27,0,0,0-3.63,1.11L34.14,10.2a11.33,11.33,0,0,1,5.57-1.61c3.35,0,5.37,1.74,5.37,5.39v6.8H42.2l-.26-1.34h-.09a7.23,7.23,0,0,1-4.22,1.63A3.61,3.61,0,0,1,33.72,17.48Zm7.83-.28V15.25c-3.5.17-4.44.93-4.44,1.95,0,.77.64,1.14,1.64,1.14A4.58,4.58,0,0,0,41.55,17.2Z" transform="translate(-4.19 -2.66)"/><path class="cls-2" d="M47.4,8.88H51l1.87,5.61c.39,1.19.72,2.41,1.07,3.66H54c.35-1.25.67-2.47,1.06-3.66l1.88-5.61H60.3l-4.36,11.9h-4Z" transform="translate(-4.19 -2.66)"/><path class="cls-2" d="M62.37,14.82a6.07,6.07,0,0,1,6.19-6.23c3.68,0,5.61,2.48,5.61,5.71A9.76,9.76,0,0,1,74,15.88H65V13.52h6.64l-.55.67c0-1.91-.83-2.92-2.4-2.92-1.74,0-2.89,1.19-2.89,3.55s1.35,3.56,3.66,3.56a6.5,6.5,0,0,0,3.07-.83l1.17,2.13A9.14,9.14,0,0,1,69,21.07C65.26,21.07,62.37,18.78,62.37,14.82Z" transform="translate(-4.19 -2.66)"/><path class="cls-2" d="M80.38,16.13V6.74H76.64V4h7.28v12.3a1.76,1.76,0,0,0,1.94,1.95,5.2,5.2,0,0,0,1.85-.39l.78,2.6a10,10,0,0,1-3.55.64C81.94,21.07,80.38,19.15,80.38,16.13Z" transform="translate(-4.19 -2.66)"/><path class="cls-2" d="M91.12,19.25,92.62,17a9.05,9.05,0,0,0,4.8,1.42c1.31,0,1.89-.44,1.89-1s-.57-.9-2.91-1.39c-3.24-.7-4.53-1.89-4.53-3.72,0-2.22,2.08-3.73,5.48-3.73a9.67,9.67,0,0,1,5.15,1.62l-1.58,2.13A7.66,7.66,0,0,0,97,11.2c-1.1,0-1.65.39-1.65,1s.73.82,2.75,1.27c3.68.82,4.7,1.87,4.7,3.81,0,2.15-2.06,3.84-5.88,3.84A11.08,11.08,0,0,1,91.12,19.25Z" transform="translate(-4.19 -2.66)"/><path class="cls-2" d="M125.32,11.64h-4.79V8.88h8.33v11.9h-3.54Zm-.74-6.78a2.36,2.36,0,0,1,4.7,0,2.36,2.36,0,0,1-4.7,0Z" transform="translate(-4.19 -2.66)"/><path class="cls-2" d="M134.78,8.88h2.88l.25,1.58h.1a5.77,5.77,0,0,1,4.11-1.87c2.69,0,3.88,1.84,3.88,4.84v7.35h-3.54V13.89c0-1.59-.45-2.29-1.74-2.29a3.29,3.29,0,0,0-2.41,1.24v7.94h-3.53Z" transform="translate(-4.19 -2.66)"/><path class="cls-2" d="M163.15,13.05c0-5.19,3.28-8.2,7.47-8.2a6.7,6.7,0,0,1,4.66,2L173.33,9a3.79,3.79,0,0,0-2.71-1.12c-2.22,0-3.85,1.89-3.85,5s1.63,5.08,4,5.08a3.77,3.77,0,0,0,2.81-1.38l2,2.14a6.44,6.44,0,0,1-5.13,2.3C166.5,21.07,163.15,18.32,163.15,13.05Z" transform="translate(-4.19 -2.66)"/><path class="cls-2" d="M177.37,14.84a6.08,6.08,0,1,1,12.15,0,6.08,6.08,0,1,1-12.15,0Zm8.53,0c0-2.07-.83-3.4-2.46-3.4S181,12.77,181,14.84s.83,3.38,2.45,3.38S185.9,16.89,185.9,14.84Z" transform="translate(-4.19 -2.66)"/><path class="cls-2" d="M191.77,14.84c0-3.9,2.5-6.25,5.09-6.25a3.89,3.89,0,0,1,3,1.28H200L199.78,8V4h3.53V20.78h-2.87l-.26-1.22h-.09a5,5,0,0,1-3.3,1.51C193.75,21.07,191.77,18.73,191.77,14.84Zm8,2.23v-4.8a2.78,2.78,0,0,0-2-.79c-1.29,0-2.4,1-2.4,3.32s.86,3.38,2.3,3.38A2.45,2.45,0,0,0,199.78,17.07Z" transform="translate(-4.19 -2.66)"/><path class="cls-2" d="M206.36,14.82a6.08,6.08,0,0,1,6.2-6.23c3.67,0,5.6,2.48,5.6,5.71a11.39,11.39,0,0,1-.14,1.58h-9V13.52h6.65l-.56.67c0-1.91-.83-2.92-2.39-2.92-1.75,0-2.89,1.19-2.89,3.55s1.34,3.56,3.66,3.56a6.43,6.43,0,0,0,3.06-.83l1.17,2.13A9.11,9.11,0,0,1,213,21.07C209.25,21.07,206.36,18.78,206.36,14.82Z" transform="translate(-4.19 -2.66)"/></g></svg>