<svg xmlns="http://www.w3.org/2000/svg" viewBox="0 0 99.91 75.77"><defs><style>.cls-1{fill:#FFF;}.cls-2{fill:#567496;}</style></defs><title>travels-in-code</title><g id="Shadow"><path class="cls-1" d="M13.8,24.05H9.11v-3H22v3H17.34V36.72H13.8Z" transform="translate(-7.83 -18.83)"/><path class="cls-1" d="M25.54,24.81h2.9l.28,2.61h.09a5.52,5.52,0,0,1,4.82-2.9,5,5,0,0,1,2.29.48l-.72,3a6.13,6.13,0,0,0-2.1-.35c-1.48,0-3,.77-4,2.91v6.19H25.54Z" transform="translate(-7.83 -18.83)"/><path class="cls-1" d="M38.64,33.42c0-2.67,2.21-4,7.83-4.37-.12-1.07-.92-1.72-2.52-1.72a8.3,8.3,0,0,0-3.63,1.12l-1.26-2.32a11.33,11.33,0,0,1,5.57-1.61C48,24.52,50,26.26,50,29.91v6.81H47.12l-.25-1.34h-.09A7.35,7.35,0,0,1,42.56,37,3.61,3.61,0,0,1,38.64,33.42Zm7.83-.29v-2c-3.5.18-4.44.94-4.44,2,0,.76.64,1.13,1.64,1.13A4.52,4.52,0,0,0,46.47,33.13Z" transform="translate(-7.83 -18.83)"/><path class="cls-1" d="M52.32,24.81h3.55l1.87,5.62c.39,1.19.72,2.41,1.07,3.66h.1c.35-1.25.67-2.47,1.06-3.66l1.88-5.62h3.37L60.86,36.72h-4Z" transform="translate(-7.83 -18.83)"/><path class="cls-1" d="M67.29,30.76a6.08,6.08,0,0,1,6.2-6.24c3.67,0,5.6,2.48,5.6,5.72a9.88,9.88,0,0,1-.15,1.58h-9V29.45h6.65l-.56.68c0-1.92-.83-2.92-2.4-2.92-1.74,0-2.89,1.18-2.89,3.55s1.35,3.55,3.66,3.55a6.6,6.6,0,0,0,3.07-.82l1.17,2.13A9.11,9.11,0,0,1,73.89,37C70.18,37,67.29,34.72,67.29,30.76Z" transform="translate(-7.83 -18.83)"/><path class="cls-1" d="M85.3,32.06V22.68H81.56V19.91h7.28v12.3a1.77,1.77,0,0,0,1.94,1.95,5.2,5.2,0,0,0,1.85-.39l.79,2.59a9.85,9.85,0,0,1-3.56.65C86.86,37,85.3,35.08,85.3,32.06Z" transform="translate(-7.83 -18.83)"/><path class="cls-1" d="M96,35.18l1.5-2.2a9.08,9.08,0,0,0,4.81,1.41c1.31,0,1.89-.43,1.89-1s-.58-.91-2.92-1.4c-3.24-.69-4.52-1.88-4.52-3.72,0-2.22,2.07-3.73,5.47-3.73a9.68,9.68,0,0,1,5.15,1.63l-1.58,2.12a7.63,7.63,0,0,0-3.9-1.14c-1.1,0-1.65.4-1.65,1s.74.81,2.75,1.26c3.68.83,4.7,1.87,4.7,3.81,0,2.16-2.06,3.85-5.88,3.85A11.08,11.08,0,0,1,96,35.18Z" transform="translate(-7.83 -18.83)"/><path class="cls-1" d="M51.05,56.38h-4.8V53.61h8.33V65.52H51.05Zm-.74-6.79a2.35,2.35,0,0,1,4.69,0,2.35,2.35,0,0,1-4.69,0Z" transform="translate(-7.83 -18.83)"/><path class="cls-1" d="M60.5,53.61h2.88l.25,1.59h.1a5.78,5.78,0,0,1,4.12-1.88c2.69,0,3.87,1.84,3.87,4.85v7.35H68.19v-6.9c0-1.58-.46-2.29-1.75-2.29A3.34,3.34,0,0,0,64,57.57v7.95H60.5Z" transform="translate(-7.83 -18.83)"/><path class="cls-1" d="M31.27,86.58c0-5.18,3.28-8.19,7.47-8.19a6.72,6.72,0,0,1,4.67,2l-1.95,2.19a3.83,3.83,0,0,0-2.72-1.12c-2.22,0-3.84,1.88-3.84,5s1.62,5.08,4,5.08a3.79,3.79,0,0,0,2.82-1.38l1.95,2.14a6.47,6.47,0,0,1-5.13,2.3C34.63,94.61,31.27,91.86,31.27,86.58Z" transform="translate(-7.83 -18.83)"/><path class="cls-1" d="M45.5,88.37a6.07,6.07,0,1,1,6.07,6.24A6,6,0,0,1,45.5,88.37Zm8.53,0c0-2.06-.83-3.4-2.46-3.4s-2.45,1.34-2.45,3.4.83,3.39,2.45,3.39S54,90.43,54,88.37Z" transform="translate(-7.83 -18.83)"/><path class="cls-1" d="M59.9,88.37c0-3.89,2.5-6.25,5.09-6.25a4,4,0,0,1,3,1.28h.08l-.16-1.84v-4h3.53V94.32H68.56l-.25-1.23h-.09a4.93,4.93,0,0,1-3.3,1.52C61.88,94.61,59.9,92.26,59.9,88.37Zm8,2.24v-4.8a2.79,2.79,0,0,0-2-.79c-1.29,0-2.41,1-2.41,3.31s.87,3.38,2.31,3.38A2.45,2.45,0,0,0,67.91,90.61Z" transform="translate(-7.83 -18.83)"/><path class="cls-1" d="M74.49,88.36a6.08,6.08,0,0,1,6.2-6.24c3.67,0,5.6,2.48,5.6,5.72a9.88,9.88,0,0,1-.15,1.58h-9V87.05h6.64l-.55.68c0-1.92-.83-2.92-2.4-2.92-1.74,0-2.89,1.18-2.89,3.55s1.35,3.56,3.66,3.56a6.61,6.61,0,0,0,3.07-.83l1.17,2.12a9,9,0,0,1-4.72,1.4C77.38,94.61,74.49,92.32,74.49,88.36Z" transform="translate(-7.83 -18.83)"/></g><g id="Text"><path class="cls-2" d="M12.52,23H7.83V20H20.75v3H16.06V35.65H12.52Z" transform="translate(-7.83 -18.83)"/><path class="cls-2" d="M24.26,23.74h2.9l.28,2.6h.08a5.55,5.55,0,0,1,4.83-2.89,4.9,4.9,0,0,1,2.29.48l-.72,3a6.18,6.18,0,0,0-2.11-.35c-1.47,0-3,.77-4,2.9v6.2H24.26Z" transform="translate(-7.83 -18.83)"/><path class="cls-2" d="M37.36,32.34c0-2.66,2.2-4,7.83-4.36-.13-1.07-.93-1.72-2.53-1.72A8.21,8.21,0,0,0,39,27.38l-1.26-2.32a11.34,11.34,0,0,1,5.58-1.61c3.34,0,5.37,1.74,5.37,5.39v6.81H45.84l-.26-1.35h-.09a7.23,7.23,0,0,1-4.22,1.63A3.6,3.6,0,0,1,37.36,32.34Zm7.83-.28v-2c-3.5.18-4.45.94-4.45,2,0,.77.65,1.14,1.65,1.14A4.58,4.58,0,0,0,45.19,32.06Z" transform="translate(-7.83 -18.83)"/><path class="cls-2" d="M51,23.74h3.54l1.88,5.61c.38,1.2.71,2.42,1.07,3.67h.09c.36-1.25.68-2.47,1.07-3.67l1.87-5.61h3.38L59.57,35.65h-4Z" transform="translate(-7.83 -18.83)"/><path class="cls-2" d="M66,29.69a6.07,6.07,0,0,1,6.19-6.24c3.67,0,5.61,2.48,5.61,5.72a10,10,0,0,1-.15,1.58h-9V28.38h6.64l-.56.67c0-1.91-.83-2.91-2.39-2.91-1.75,0-2.89,1.18-2.89,3.55s1.34,3.55,3.66,3.55a6.5,6.5,0,0,0,3.07-.83l1.17,2.13a9.14,9.14,0,0,1-4.72,1.39C68.9,35.93,66,33.64,66,29.69Z" transform="translate(-7.83 -18.83)"/><path class="cls-2" d="M84,31V21.6H80.27V18.83h7.28v12.3a1.76,1.76,0,0,0,1.94,1.95,5,5,0,0,0,1.86-.39l.78,2.6a10,10,0,0,1-3.55.64C85.58,35.93,84,34,84,31Z" transform="translate(-7.83 -18.83)"/><path class="cls-2" d="M94.76,34.11l1.5-2.2a9.13,9.13,0,0,0,4.8,1.41c1.31,0,1.89-.44,1.89-1s-.58-.91-2.91-1.4c-3.24-.69-4.53-1.88-4.53-3.72,0-2.22,2.07-3.73,5.47-3.73a9.68,9.68,0,0,1,5.16,1.63l-1.59,2.12a7.62,7.62,0,0,0-3.89-1.14c-1.1,0-1.65.39-1.65,1s.73.82,2.75,1.27c3.67.82,4.7,1.87,4.7,3.81,0,2.16-2.06,3.84-5.88,3.84A11.08,11.08,0,0,1,94.76,34.11Z" transform="translate(-7.83 -18.83)"/><path class="cls-2" d="M49.76,55.31H45V52.54H53.3V64.45H49.76ZM49,48.52a2.36,2.36,0,0,1,4.7,0,2.36,2.36,0,0,1-4.7,0Z" transform="translate(-7.83 -18.83)"/><path class="cls-2" d="M59.22,52.54H62.1l.25,1.59h.1a5.73,5.73,0,0,1,4.11-1.88c2.69,0,3.88,1.84,3.88,4.84v7.36H66.9v-6.9c0-1.59-.45-2.29-1.74-2.29a3.32,3.32,0,0,0-2.41,1.24v8H59.22Z" transform="translate(-7.83 -18.83)"/><path class="cls-2" d="M30,85.51c0-5.18,3.28-8.19,7.47-8.19a6.74,6.74,0,0,1,4.67,2l-2,2.2a3.8,3.8,0,0,0-2.72-1.13c-2.22,0-3.84,1.89-3.84,5s1.62,5.09,4,5.09a3.8,3.8,0,0,0,2.82-1.39l1.94,2.15a6.43,6.43,0,0,1-5.13,2.29C33.34,93.53,30,90.79,30,85.51Z" transform="translate(-7.83 -18.83)"/><path class="cls-2" d="M44.21,87.3a6.08,6.08,0,1,1,6.08,6.23A6,6,0,0,1,44.21,87.3Zm8.53,0c0-2.07-.83-3.4-2.45-3.4s-2.46,1.33-2.46,3.4.83,3.38,2.46,3.38S52.74,89.36,52.74,87.3Z" transform="translate(-7.83 -18.83)"/><path class="cls-2" d="M58.61,87.3c0-3.9,2.51-6.25,5.1-6.25a3.92,3.92,0,0,1,3,1.28h.08l-.17-1.84V76.43h3.54V93.25H67.28L67,92h-.09a4.94,4.94,0,0,1-3.29,1.51C60.6,93.53,58.61,91.19,58.61,87.3Zm8,2.24V84.73a2.82,2.82,0,0,0-2-.79c-1.29,0-2.4,1-2.4,3.32s.86,3.38,2.31,3.38A2.46,2.46,0,0,0,66.62,89.54Z" transform="translate(-7.83 -18.83)"/><path class="cls-2" d="M73.21,87.29a6.07,6.07,0,0,1,6.19-6.24c3.67,0,5.61,2.48,5.61,5.71a10,10,0,0,1-.15,1.59h-9V86h6.64l-.56.67c0-1.91-.83-2.91-2.39-2.91-1.75,0-2.89,1.18-2.89,3.55s1.34,3.55,3.66,3.55A6.5,6.5,0,0,0,83.36,90l1.17,2.13a9.14,9.14,0,0,1-4.72,1.39C76.09,93.53,73.21,91.24,73.21,87.29Z" transform="translate(-7.83 -18.83)"/></g></svg>