<?xml version="1.0" encoding="UTF-8" standalone="no"?>
<!-- Created with Inkscape (http://www.inkscape.org/) -->

<svg
   xmlns:dc="http://purl.org/dc/elements/1.1/"
   xmlns:cc="http://creativecommons.org/ns#"
   xmlns:rdf="http://www.w3.org/1999/02/22-rdf-syntax-ns#"
   xmlns:svg="http://www.w3.org/2000/svg"
   xmlns="http://www.w3.org/2000/svg"
   xmlns:xlink="http://www.w3.org/1999/xlink"
   version="1.1"
   width="480"
   height="96"
   id="svg2">
  <defs
     id="defs4">
    <linearGradient
       id="linearGradient3815">
      <stop
         id="stop3817"
         style="stop-color:#fff04b;stop-opacity:1"
         offset="0" />
      <stop
         id="stop3823"
         style="stop-color:#f0ce24;stop-opacity:0.49803922"
         offset="0.25" />
      <stop
         id="stop3819"
         style="stop-color:#ffffff;stop-opacity:0"
         offset="1" />
    </linearGradient>
    <linearGradient
       x1="53.946274"
       y1="14.387427"
       x2="71.78772"
       y2="14.387427"
       id="linearGradient3821"
       xlink:href="#linearGradient3815"
       gradientUnits="userSpaceOnUse" />
  </defs>
  <metadata
     id="metadata7">
    <rdf:RDF>
      <cc:Work
         rdf:about="">
        <dc:format>image/svg+xml</dc:format>
        <dc:type
           rdf:resource="http://purl.org/dc/dcmitype/StillImage" />
        <dc:title></dc:title>
      </cc:Work>
    </rdf:RDF>
  </metadata>
  <g
     id="Tick">
    <path
       d="M 5.2617253,28.69703 17.617729,42.05303 42.482279,17.25628 36.685635,11.45964 17.007556,30.375 9.9905661,22.74784 z"
       id="path2991"
       style="fill:#43ac6a;fill-opacity:1;stroke:none" />
  </g>
  <g
     transform="translate(48,0)"
     id="LightBulb">
    <g
       id="g3825">
      <g
         transform="translate(1.75,0)"
         id="g3976">
        <path
           d="m 22.1875,7.21875 c -7.46375,0 -13.5,6.03625 -13.5,13.5 0,5.449002 3.229689,10.143158 7.875,12.28125 l 0,9.53125 11.25,0 0,-9.5 c 4.661621,-2.131574 7.90625,-6.851629 7.90625,-12.3125 0,-7.46375 -6.0675,-13.5 -13.53125,-13.5 z"
           id="path3967"
           style="fill:#ffffff;fill-opacity:1;stroke:#000000;stroke-linejoin:miter;stroke-opacity:1" />
        <rect
           width="10.232215"
           height="9.3764639"
           x="17.060299"
           y="32.690727"
           id="rect3973"
           style="fill:#ffccaa;fill-opacity:1;stroke:none" />
      </g>
      <path
         d="m 71.787721,14.387427 a 8.9207239,8.6796236 0 1 1 -17.841448,0 8.9207239,8.6796236 0 1 1 17.841448,0 z"
         transform="matrix(-0.08528715,1.0771292,-1.2087616,-0.07599951,46.751401,-46.82168)"
         id="path3045"
         style="fill:url(#linearGradient3821);fill-opacity:1;stroke:none" />
      <path
         d="m 20.653412,28.06989 -3.013758,-10.849531 4.158986,2.832933 2.411007,-3.254858 2.230181,3.254859 3.85761,-2.893209 -3.375408,10.970081 0.12055,-0.180826"
         id="path3043"
         style="fill:none;stroke:#ffc040;stroke-width:1px;stroke-linecap:round;stroke-linejoin:round;stroke-opacity:1" />
    </g>
  </g>
  <g
     transform="translate(96,0)"
     id="Cross">
    <path
       d="M 8.403898,35.941847 19.071473,25.473334 9.6097989,14.524613 14.897205,8.8581694 24.729927,19.230642 35.026456,8.1858804 l 5.194646,5.3783176 -10.482053,10.85268 9.832722,10.18039 -5.751213,5.954568 -9.739962,-10.084349 -10.296529,10.660596 z"
       id="path3980"
       style="fill:#f04124;fill-opacity:1;stroke:none" />
  </g>
</svg>
