<?xml version="1.0" encoding="utf-8"?>
<svg version="1.1" xmlns="http://www.w3.org/2000/svg" xmlns:xlink="http://www.w3.org/1999/xlink" viewBox="0 0 800 600">
<g id="Dots">
	<circle fill="#3FA9F5" stroke="#3FA9F5" stroke-miterlimit="10" cx="63.5" cy="225" r="12.9"/>
	<circle fill="#3FA9F5" stroke="#3FA9F5" stroke-miterlimit="10" cx="246.5" cy="62" r="12.9"/>
	<circle fill="#3FA9F5" stroke="#3FA9F5" stroke-miterlimit="10" cx="250.5" cy="291" r="12.9"/>
	<circle fill="#3FA9F5" stroke="#3FA9F5" stroke-miterlimit="10" cx="381.5" cy="172" r="12.9"/>
	<circle fill="#3FA9F5" stroke="#3FA9F5" stroke-miterlimit="10" cx="524.5" cy="83" r="12.9"/>
	<circle fill="#3FA9F5" stroke="#3FA9F5" stroke-miterlimit="10" cx="504.5" cy="242" r="12.9"/>
	<circle fill="#3FA9F5" stroke="#3FA9F5" stroke-miterlimit="10" cx="383.5" cy="311" r="12.9"/>
	<circle fill="#3FA9F5" stroke="#3FA9F5" stroke-miterlimit="10" cx="572.5" cy="403" r="12.9"/>
	<circle fill="#3FA9F5" stroke="#3FA9F5" stroke-miterlimit="10" cx="263.5" cy="457" r="12.9"/>
	<circle fill="#3FA9F5" stroke="#3FA9F5" stroke-miterlimit="10" cx="321.5" cy="423" r="12.9"/>
	<circle fill="#3FA9F5" stroke="#3FA9F5" stroke-miterlimit="10" cx="362.5" cy="373" r="12.9"/>
	<circle fill="#3FA9F5" stroke="#3FA9F5" stroke-miterlimit="10" cx="627.5" cy="302" r="12.9"/>
	<circle fill="#3FA9F5" stroke="#3FA9F5" stroke-miterlimit="10" cx="632.5" cy="245" r="12.9"/>
	<circle fill="#3FA9F5" stroke="#3FA9F5" stroke-miterlimit="10" cx="612.5" cy="186" r="12.9"/>
	<circle fill="#3FA9F5" stroke="#3FA9F5" stroke-miterlimit="10" cx="604.5" cy="352" r="12.9"/>
</g>
<g id="Lines">
	<line fill="none" stroke="#3FA9F5" stroke-width="6" stroke-miterlimit="10" x1="63.5" y1="225.6" x2="248.6" y2="58.7"/>
	<line fill="none" stroke="#3FA9F5" stroke-width="6" stroke-miterlimit="10" x1="63.5" y1="225" x2="250.5" y2="291"/>
	<line fill="none" stroke="#3FA9F5" stroke-width="6" stroke-miterlimit="10" x1="250.5" y1="291" x2="379.8" y2="172.2"/>
	<line fill="none" stroke="#3FA9F5" stroke-width="6" stroke-miterlimit="10" x1="383.1" y1="169.5" x2="524.5" y2="83"/>
	<line fill="none" stroke="#3FA9F5" stroke-width="6" stroke-miterlimit="10" x1="250.5" y1="291" x2="263.5" y2="457"/>
	<line fill="none" stroke="#3FA9F5" stroke-width="6" stroke-miterlimit="10" x1="250.5" y1="291" x2="321.5" y2="423"/>
	<line fill="none" stroke="#3FA9F5" stroke-width="6" stroke-miterlimit="10" x1="250.5" y1="291" x2="362.5" y2="373"/>
	<line fill="none" stroke="#3FA9F5" stroke-width="6" stroke-miterlimit="10" x1="250.5" y1="291" x2="383.5" y2="311"/>
	<line fill="none" stroke="#3FA9F5" stroke-width="6" stroke-miterlimit="10" x1="381.5" y1="172" x2="504.5" y2="242"/>
	<line fill="none" stroke="#3FA9F5" stroke-width="6" stroke-miterlimit="10" x1="504.5" y1="242" x2="612.5" y2="186"/>
	<line fill="none" stroke="#3FA9F5" stroke-width="6" stroke-miterlimit="10" x1="504.5" y1="242" x2="632.5" y2="245"/>
	<line fill="none" stroke="#3FA9F5" stroke-width="6" stroke-miterlimit="10" x1="504.5" y1="242" x2="627.5" y2="302"/>
	<line fill="none" stroke="#3FA9F5" stroke-width="6" stroke-miterlimit="10" x1="504.5" y1="242" x2="604.5" y2="352"/>
	<line fill="none" stroke="#3FA9F5" stroke-width="6" stroke-miterlimit="10" x1="504.5" y1="242" x2="572.5" y2="403"/>
</g>
<g id="Type">
	<rect x="16.2" y="250.6" fill="none" width="154.7" height="37.8"/>
	<text transform="matrix(1 0 0 1 16.2434 262.0239)"><tspan x="0" y="0" font-family="'ArialMT'" font-size="16">System </tspan><tspan x="0" y="19.2" font-family="'ArialMT'" font-size="16">acceptability</tspan></text>
	<rect x="237.9" y="16.1" fill="none" width="129.1" height="32.4"/>
	<text transform="matrix(1 0 0 1 237.8647 27.5635)"><tspan x="0" y="0" font-family="'ArialMT'" font-size="16">Social </tspan><tspan x="0" y="19.2" font-family="'ArialMT'" font-size="16">acceptability</tspan></text>
	<rect x="118.3" y="308.7" fill="none" width="119.6" height="34.5"/>
	<text transform="matrix(1 0 0 1 176.5133 320.1311)"><tspan x="0" y="0" font-family="'ArialMT'" font-size="16">Practical </tspan><tspan x="-26.7" y="19.2" font-family="'ArialMT'" font-size="16">acceptability</tspan></text>
	<rect x="627.7" y="347.9" fill="none" width="123.6" height="18.2"/>
	<text transform="matrix(1 0 0 1 627.7297 359.3206)" font-family="'ArialMT'" font-size="16">Few errors</text>
	<rect x="594.6" y="398.5" fill="none" width="160.1" height="28.4"/>
	<text transform="matrix(1 0 0 1 594.6213 409.9968)" font-family="'ArialMT'" font-size="16">Subjectively pleasing</text>
	<rect x="260.2" y="163.1" fill="none" width="102.7" height="17.6"/>
	<text transform="matrix(1 0 0 1 283.743 174.5912)" font-family="'ArialMT'" font-size="16">Usefulness</text>
	<rect x="546" y="76.3" fill="none" width="85.1" height="19.6"/>
	<text transform="matrix(1 0 0 1 545.9996 87.726)" font-family="'ArialMT'" font-size="16">Utility</text>
	<rect x="375.4" y="240.4" fill="none" width="106.8" height="29.7"/>
	<text transform="matrix(1 0 0 1 398.7488 254.7525)" font-family="'Arial-BoldMT'" font-size="20">Usability</text>
	<rect x="407" y="307" fill="none" width="71.6" height="15.9"/>
	<text transform="matrix(1 0 0 1 406.9728 318.4292)" font-family="'ArialMT'" font-size="16">Cost</text>
	<rect x="384.2" y="371.1" fill="none" width="104.1" height="23"/>
	<text transform="matrix(1 0 0 1 384.2161 382.564)" font-family="'ArialMT'" font-size="16">Compatability</text>
	<rect x="342" y="418.4" fill="none" width="105.4" height="14.9"/>
	<text transform="matrix(1 0 0 1 341.9729 429.834)" font-family="'ArialMT'" font-size="16">Reliability</text>
	<rect x="281.8" y="464.8" fill="none" width="35.1" height="24.3"/>
	<text transform="matrix(1 0 0 1 281.7838 476.2123)" font-family="'ArialMT'" font-size="16">Etc.</text>
	<rect x="635.5" y="176.2" fill="none" width="116.9" height="25"/>
	<text transform="matrix(1 0 0 1 635.4865 187.6989)" font-family="'ArialMT'" font-size="16">Easy to learn</text>
	<rect x="653.7" y="239.8" fill="none" width="123" height="30.4"/>
	<text transform="matrix(1 0 0 1 653.7296 251.2126)" font-family="'ArialMT'" font-size="16">Efficient to use</text>
	<rect x="650" y="295.8" fill="none" width="133.8" height="20.9"/>
	<text transform="matrix(1 0 0 1 650.0274 307.2934)" font-family="'ArialMT'" font-size="16">Easy to remember</text>
</g>
</svg>
